<?xml version="1.0" standalone="no"?>
<!DOCTYPE svg PUBLIC "-//W3C//DTD SVG 20010904//EN"
 "http://www.w3.org/TR/2001/REC-SVG-20010904/DTD/svg10.dtd">
<svg version="1.0" xmlns="http://www.w3.org/2000/svg"
 width="310.000000pt" height="310.000000pt" viewBox="0 0 310.000000 310.000000"
 preserveAspectRatio="xMidYMid meet">
<metadata>
Created by potrace 1.11, written by Peter Selinger 2001-2013
</metadata>
<g transform="translate(0.000000,310.000000) scale(0.100000,-0.100000)"
fill="#000000" stroke="none">
<path d="M1455 2985 c-160 -20 -252 -43 -357 -89 -20 -9 -39 -16 -42 -16 -27
0 -255 -131 -297 -171 -8 -8 -35 -30 -61 -49 -26 -19 -48 -38 -48 -43 0 -4 40
22 90 58 49 36 94 65 100 65 5 0 10 5 10 10 0 6 5 10 10 10 6 0 27 10 48 23
32 19 118 60 187 88 113 46 279 79 430 86 389 17 768 -126 1040 -394 246 -241
375 -499 419 -838 20 -150 20 -234 1 -364 -49 -326 -177 -584 -399 -805 -195
-194 -330 -272 -650 -376 -48 -16 -222 -39 -356 -48 l-125 -9 136 -1 c137 -2
277 14 379 42 30 8 66 18 80 22 14 4 30 10 35 14 6 4 23 10 39 14 95 23 319
157 436 263 147 132 219 224 328 418 65 117 119 285 151 471 14 79 14 301 0
378 -45 249 -100 401 -211 578 -52 84 -50 81 -131 178 -112 134 -305 282 -459
353 -89 40 -107 47 -178 71 -94 31 -156 44 -295 61 -132 17 -179 17 -310 0z"/>
<path d="M1465 2880 c-88 -12 -245 -45 -280 -59 -11 -5 -51 -21 -89 -37 -330
-133 -611 -420 -733 -749 -8 -22 -19 -49 -24 -60 -10 -24 -22 -72 -45 -180
-23 -105 -23 -379 -1 -480 27 -120 37 -159 46 -180 5 -11 19 -46 30 -77 19
-53 46 -107 99 -200 114 -199 343 -404 566 -507 106 -50 240 -95 258 -88 7 2
19 33 27 68 7 35 21 96 31 134 10 39 25 106 35 150 9 44 21 91 26 105 4 14 13
52 20 85 12 66 16 83 53 235 15 58 30 123 35 145 5 22 10 47 12 55 5 16 -20
21 -256 45 -246 25 -265 27 -265 37 0 5 24 55 54 111 29 56 79 152 111 212 32
61 79 151 105 200 26 50 71 135 100 190 29 55 72 136 95 180 23 44 76 146 118
226 42 81 85 162 95 180 64 116 124 240 118 246 -19 19 -233 27 -341 13z"/>
<path d="M1867 2677 c-21 -89 -42 -178 -47 -197 -6 -19 -16 -64 -24 -100 -8
-36 -29 -123 -46 -193 -17 -70 -35 -147 -40 -170 -5 -23 -17 -73 -25 -112 -9
-38 -19 -84 -22 -101 l-5 -31 89 -12 c48 -6 138 -16 198 -21 61 -6 138 -13
173 -17 35 -3 62 -11 62 -17 0 -12 -32 -76 -99 -201 -43 -79 -68 -125 -148
-275 -22 -41 -71 -133 -108 -205 -37 -71 -80 -152 -95 -180 -59 -108 -110
-205 -170 -320 -35 -66 -80 -150 -101 -188 -53 -94 -53 -99 1 -110 53 -10 294
-2 365 12 138 27 210 47 230 63 5 4 15 8 22 8 29 0 205 92 288 151 208 148
376 360 469 594 16 39 32 79 37 90 10 25 33 128 49 220 21 122 3 427 -32 535
-48 148 -67 195 -128 305 -124 226 -354 443 -580 547 -125 57 -212 88 -250 88
-24 0 -26 -6 -63 -163z"/>
<path d="M614 2578 l-19 -23 23 19 c21 18 27 26 19 26 -2 0 -12 -10 -23 -22z"/>
<path d="M1220 180 c-13 -8 -12 -10 3 -10 9 0 17 5 17 10 0 12 -1 12 -20 0z"/>
<path d="M1285 160 c-3 -5 1 -10 9 -10 8 0 18 5 21 10 3 6 -1 10 -9 10 -8 0
-18 -4 -21 -10z"/>
<path d="M1373 143 c15 -2 37 -2 50 0 12 2 0 4 -28 4 -27 0 -38 -2 -22 -4z"/>
</g>
</svg>
